<svg width="90" height="15" viewBox="0 0 90 15" fill="none" xmlns="http://www.w3.org/2000/svg">
<path d="M7.5 0L9.18385 5.18237H14.6329L10.2245 8.38525L11.9084 13.5676L7.5 10.3647L3.09161 13.5676L4.77547 8.38525L0.367076 5.18237H5.81614L7.5 0Z" fill="#24211E"/>
<path d="M26.2502 0L27.9341 5.18237H33.3832L28.9748 8.38525L30.6586 13.5676L26.2502 10.3647L21.8419 13.5676L23.5257 8.38525L19.1173 5.18237H24.5664L26.2502 0Z" fill="#24211E"/>
<path d="M45.0005 0L46.6843 5.18237H52.1334L47.725 8.38525L49.4089 13.5676L45.0005 10.3647L40.5921 13.5676L42.276 8.38525L37.8676 5.18237H43.3166L45.0005 0Z" fill="#24211E"/>
<path d="M63.7505 0L65.4343 5.18237H70.8834L66.475 8.38525L68.1589 13.5676L63.7505 10.3647L59.3421 13.5676L61.026 8.38525L56.6176 5.18237H62.0666L63.7505 0Z" fill="#24211E"/>
<path d="M82.4988 1.61803L83.7071 5.33688L83.8194 5.68237H84.1826H88.0929L84.9294 7.98075L84.6355 8.19427L84.7478 8.53976L85.9561 12.2586L82.7927 9.96024L82.4988 9.74671L82.2049 9.96024L79.0414 12.2586L80.2498 8.53976L80.362 8.19427L80.0681 7.98075L76.9047 5.68237H80.8149H81.1782L81.2905 5.33688L82.4988 1.61803Z" fill="#24211E" stroke="#24211E"/>
</svg>
